<?xml version="1.0" encoding="utf-8"?>
<!-- Generator: Adobe Illustrator 21.1.0, SVG Export Plug-In . SVG Version: 6.00 Build 0)  -->
<svg version="1.1" id="Capa_1" xmlns="http://www.w3.org/2000/svg" xmlns:xlink="http://www.w3.org/1999/xlink" x="0px" y="0px"
	 viewBox="0 0 58 58" style="enable-background:new 0 0 58 58;" xml:space="preserve">
<style type="text/css">
	.st0{fill:#EF0F0F;}
	.st1{fill:#FFFFFF;}
</style>
<circle class="st0" cx="29" cy="29" r="29"/>
<g>
	<polygon class="st1" points="44,29 22,44 22,29.3 22,14 	"/>
	<path class="st1" d="M22,45c-0.2,0-0.3,0-0.5-0.1C21.2,44.7,21,44.4,21,44V14c0-0.4,0.2-0.7,0.5-0.9c0.3-0.2,0.7-0.1,1,0.1l22,15
		c0.3,0.2,0.4,0.5,0.4,0.8s-0.2,0.6-0.4,0.8l-22,15C22.4,44.9,22.2,45,22,45z M23,15.9v26.2L42.2,29L23,15.9z"/>
</g>
</svg>
